# xmcd CD database file
#
# Track frame offsets:
#	150
#	58139
#	103425
#	158310
#	185021
#	256170
#	318378
#	337580
#
# Disc length: 4740 seconds
#
# Revision: 0
# Processed by: cddbd v1.5.2PL0 Copyright (c) Steve Scherf et al.
# Submitted via: CDex 1.51
#
DISCID=65128208
DTITLE=Paolo Fresu Quintet - All'incrocio dei venti (live in Matera 2004)
DYEAR=2004
DGENRE=Jazz
TTITLE0=Que reste t-il des nos amours (Charles Trenet)
TTITLE1=Treap (Attilio Zanchi)
TTITLE2=Kosmopolites (Roberto Cipelli)
TTITLE3=On second line (Attilio Zanchi)
TTITLE4=Fellini (Paolo Fresu)
TTITLE5=Only women bleed (Alice Cooper)
TTITLE6=Lascia ch'io pianga (Georg Friederich Haendel)
TTITLE7=Negli occhi (Roberto Cipelli)
EXTD=YEAR: 2004
EXTT0=
EXTT1=
EXTT2=
EXTT3=
EXTT4=
EXTT5=
EXTT6=
EXTT7=
PLAYORDER=
